<svg height="100" viewBox="0 0 550 99" fill="none" xmlns="http://www.w3.org/2000/svg">
<path d="M33.44 80.448C35.072 80.448 36.848 80.304 38.768 80.016C40.784 79.632 42.272 79.152 43.232 78.576V67.056L32.864 67.92C30.176 68.112 27.968 68.688 26.24 69.648C24.512 70.608 23.648 72.048 23.648 73.968C23.648 75.888 24.368 77.472 25.808 78.72C27.344 79.872 29.888 80.448 33.44 80.448ZM32.288 23.856C37.472 23.856 42.176 24.384 46.4 25.44C50.72 26.496 54.368 28.128 57.344 30.336C60.416 32.448 62.768 35.184 64.4 38.544C66.032 41.808 66.848 45.696 66.848 50.208V82.464C66.848 84.96 66.128 87.024 64.688 88.656C63.344 90.192 61.712 91.536 59.792 92.688C53.552 96.432 44.768 98.304 33.44 98.304C28.352 98.304 23.744 97.824 19.616 96.864C15.584 95.904 12.08 94.464 9.104 92.544C6.224 90.624 3.968 88.176 2.336 85.2C0.8 82.224 0.0320001 78.768 0.0320001 74.832C0.0320001 68.208 2 63.12 5.936 59.568C9.872 56.016 15.968 53.808 24.224 52.944L43.088 50.928V49.92C43.088 47.136 41.84 45.168 39.344 44.016C36.944 42.768 33.44 42.144 28.832 42.144C25.184 42.144 21.632 42.528 18.176 43.296C14.72 44.064 11.6 45.024 8.816 46.176C7.568 45.312 6.512 44.016 5.648 42.288C4.784 40.464 4.352 38.592 4.352 36.672C4.352 34.176 4.928 32.208 6.08 30.768C7.328 29.232 9.2 27.936 11.696 26.88C14.48 25.824 17.744 25.056 21.488 24.576C25.328 24.096 28.928 23.856 32.288 23.856ZM525.653 88.8C524.885 89.184 523.445 89.52 521.333 89.808C519.317 90 517.349 90.096 515.429 90.096C511.493 90.096 508.517 89.472 506.501 88.224C504.485 86.88 503.477 84.096 503.477 79.872V64.032H481.733C481.061 62.976 480.485 61.584 480.005 59.856C479.621 58.128 479.429 56.4 479.429 54.672C479.429 51.216 480.197 48.72 481.733 47.184C483.269 45.552 485.333 44.736 487.925 44.736H503.477V20.544C504.437 20.256 505.877 19.968 507.797 19.68C509.813 19.296 511.781 19.104 513.701 19.104C517.541 19.104 520.469 19.776 522.485 21.12C524.597 22.464 525.653 25.296 525.653 29.616V44.736H546.965C547.445 45.888 547.925 47.328 548.405 49.056C548.981 50.688 549.269 52.416 549.269 54.24C549.269 57.6 548.501 60.096 546.965 61.728C545.429 63.264 543.413 64.032 540.917 64.032H525.653V88.8Z" fill="#EA9801"/>
<path d="M121.272 43.152C118.872 43.152 116.568 43.536 114.36 44.304C112.248 45.072 110.376 46.224 108.744 47.76C107.208 49.2 105.96 51.024 105 53.232C104.04 55.44 103.56 58.032 103.56 61.008C103.56 66.96 105.24 71.424 108.6 74.4C112.056 77.376 116.232 78.864 121.128 78.864C124.008 78.864 126.504 78.528 128.616 77.856C130.728 77.184 132.6 76.464 134.232 75.696C136.152 77.04 137.592 78.528 138.552 80.16C139.512 81.696 139.992 83.568 139.992 85.776C139.992 89.712 138.12 92.784 134.376 94.992C130.632 97.104 125.448 98.16 118.824 98.16C112.776 98.16 107.304 97.296 102.408 95.568C97.5121 93.744 93.2881 91.248 89.7361 88.08C86.2801 84.816 83.5921 80.928 81.6721 76.416C79.7521 71.904 78.7921 66.912 78.7921 61.44C78.7921 55.104 79.8001 49.584 81.8161 44.88C83.9281 40.08 86.7601 36.144 90.3121 33.072C93.8641 30 97.9441 27.696 102.552 26.16C107.256 24.624 112.2 23.856 117.384 23.856C124.296 23.856 129.624 25.104 133.368 27.6C137.112 30.096 138.984 33.312 138.984 37.248C138.984 39.072 138.552 40.8 137.688 42.432C136.824 43.968 135.816 45.312 134.664 46.464C133.032 45.696 131.064 44.976 128.76 44.304C126.456 43.536 123.96 43.152 121.272 43.152ZM152.269 27.024C153.229 26.736 154.717 26.448 156.733 26.16C158.845 25.872 161.005 25.728 163.213 25.728C165.325 25.728 167.197 25.872 168.829 26.16C170.557 26.448 171.997 27.024 173.149 27.888C174.301 28.752 175.165 29.952 175.741 31.488C176.413 32.928 176.749 34.848 176.749 37.248V68.208C176.749 72.144 177.709 74.976 179.629 76.704C181.549 78.336 184.333 79.152 187.981 79.152C190.189 79.152 191.965 78.96 193.309 78.576C194.749 78.192 195.853 77.808 196.621 77.424V27.024C197.581 26.736 199.069 26.448 201.085 26.16C203.197 25.872 205.357 25.728 207.565 25.728C209.677 25.728 211.549 25.872 213.181 26.16C214.909 26.448 216.349 27.024 217.501 27.888C218.653 28.752 219.517 29.952 220.093 31.488C220.765 32.928 221.101 34.848 221.101 37.248V81.024C221.101 85.824 219.085 89.424 215.053 91.824C211.693 93.936 207.661 95.52 202.957 96.576C198.349 97.728 193.309 98.304 187.837 98.304C182.653 98.304 177.853 97.728 173.437 96.576C169.117 95.424 165.373 93.648 162.205 91.248C159.037 88.848 156.589 85.776 154.861 82.032C153.133 78.192 152.269 73.584 152.269 68.208V27.024ZM280.434 51.648C280.434 48.672 279.57 46.512 277.842 45.168C276.21 43.728 273.954 43.008 271.074 43.008C269.154 43.008 267.234 43.248 265.314 43.728C263.49 44.208 261.906 44.928 260.562 45.888V95.856C259.602 96.144 258.066 96.432 255.954 96.72C253.938 97.008 251.826 97.152 249.618 97.152C247.506 97.152 245.586 97.008 243.858 96.72C242.226 96.432 240.834 95.856 239.682 94.992C238.53 94.128 237.618 92.976 236.946 91.536C236.37 90 236.082 88.032 236.082 85.632V42.432C236.082 39.84 236.61 37.728 237.666 36.096C238.818 34.464 240.354 32.976 242.274 31.632C245.538 29.328 249.618 27.456 254.514 26.016C259.506 24.576 265.026 23.856 271.074 23.856C281.922 23.856 290.274 26.256 296.13 31.056C301.986 35.76 304.914 42.336 304.914 50.784V95.856C303.954 96.144 302.418 96.432 300.306 96.72C298.29 97.008 296.178 97.152 293.97 97.152C291.858 97.152 289.938 97.008 288.21 96.72C286.578 96.432 285.186 95.856 284.034 94.992C282.882 94.128 281.97 92.976 281.298 91.536C280.722 90 280.434 88.032 280.434 85.632V51.648ZM389.155 95.856C388.195 96.144 386.659 96.432 384.547 96.72C382.531 97.008 380.419 97.152 378.211 97.152C376.099 97.152 374.179 97.008 372.451 96.72C370.819 96.432 369.427 95.856 368.275 94.992C367.123 94.128 366.211 92.976 365.539 91.536C364.963 90 364.675 88.032 364.675 85.632V53.664C364.675 49.728 363.667 46.992 361.651 45.456C359.731 43.824 357.331 43.008 354.451 43.008C352.531 43.008 350.707 43.248 348.979 43.728C347.251 44.208 345.859 44.784 344.803 45.456V95.856C343.843 96.144 342.307 96.432 340.195 96.72C338.179 97.008 336.067 97.152 333.859 97.152C331.747 97.152 329.827 97.008 328.099 96.72C326.467 96.432 325.075 95.856 323.923 94.992C322.771 94.128 321.859 92.976 321.187 91.536C320.611 90 320.323 88.032 320.323 85.632V2.112C321.379 1.92 322.915 1.68 324.931 1.392C327.043 1.008 329.155 0.815998 331.267 0.815998C333.379 0.815998 335.251 0.959996 336.883 1.24799C338.611 1.53599 340.051 2.112 341.203 2.976C342.355 3.84 343.219 5.04 343.795 6.57599C344.467 8.016 344.803 9.936 344.803 12.336V26.448C346.051 25.968 347.923 25.44 350.419 24.864C353.011 24.192 355.843 23.856 358.915 23.856C368.419 23.856 375.811 26.256 381.091 31.056C386.467 35.76 389.155 42.816 389.155 52.224V95.856ZM434.221 80.448C435.853 80.448 437.629 80.304 439.549 80.016C441.565 79.632 443.053 79.152 444.013 78.576V67.056L433.645 67.92C430.957 68.112 428.749 68.688 427.021 69.648C425.293 70.608 424.429 72.048 424.429 73.968C424.429 75.888 425.149 77.472 426.589 78.72C428.125 79.872 430.669 80.448 434.221 80.448ZM433.069 23.856C438.253 23.856 442.957 24.384 447.181 25.44C451.501 26.496 455.149 28.128 458.125 30.336C461.197 32.448 463.549 35.184 465.181 38.544C466.813 41.808 467.629 45.696 467.629 50.208V82.464C467.629 84.96 466.909 87.024 465.469 88.656C464.125 90.192 462.493 91.536 460.573 92.688C454.333 96.432 445.549 98.304 434.221 98.304C429.133 98.304 424.525 97.824 420.397 96.864C416.365 95.904 412.861 94.464 409.885 92.544C407.005 90.624 404.749 88.176 403.117 85.2C401.581 82.224 400.813 78.768 400.813 74.832C400.813 68.208 402.781 63.12 406.717 59.568C410.653 56.016 416.749 53.808 425.005 52.944L443.869 50.928V49.92C443.869 47.136 442.621 45.168 440.125 44.016C437.725 42.768 434.221 42.144 429.613 42.144C425.965 42.144 422.413 42.528 418.957 43.296C415.501 44.064 412.381 45.024 409.597 46.176C408.349 45.312 407.293 44.016 406.429 42.288C405.565 40.464 405.133 38.592 405.133 36.672C405.133 34.176 405.709 32.208 406.861 30.768C408.109 29.232 409.981 27.936 412.477 26.88C415.261 25.824 418.525 25.056 422.269 24.576C426.109 24.096 429.709 23.856 433.069 23.856Z" fill="white"/>
</svg>
