<svg width="68" height="76" viewBox="0 0 68 76" fill="none" xmlns="http://www.w3.org/2000/svg">
<path d="M33.7759 57.448C35.4079 57.448 37.1839 57.304 39.1039 57.016C41.1199 56.632 42.6079 56.152 43.5679 55.576V44.056L33.1999 44.92C30.5119 45.112 28.3039 45.688 26.5759 46.648C24.8479 47.608 23.9839 49.048 23.9839 50.968C23.9839 52.888 24.7039 54.472 26.1439 55.72C27.6799 56.872 30.2239 57.448 33.7759 57.448ZM32.6239 0.855993C37.8079 0.855993 42.5119 1.384 46.7359 2.44C51.0559 3.496 54.7039 5.128 57.6799 7.336C60.7519 9.448 63.1039 12.184 64.7359 15.544C66.3679 18.808 67.1839 22.696 67.1839 27.208V59.464C67.1839 61.96 66.4639 64.024 65.0239 65.656C63.6799 67.192 62.0479 68.536 60.1279 69.688C53.8879 73.432 45.1039 75.304 33.7759 75.304C28.6879 75.304 24.0799 74.824 19.9519 73.864C15.9199 72.904 12.4159 71.464 9.43994 69.544C6.55994 67.624 4.30394 65.176 2.67194 62.2C1.13594 59.224 0.367938 55.768 0.367938 51.832C0.367938 45.208 2.33594 40.12 6.27194 36.568C10.2079 33.016 16.3039 30.808 24.5599 29.944L43.4239 27.928V26.92C43.4239 24.136 42.1759 22.168 39.6799 21.016C37.2799 19.768 33.7759 19.144 29.1679 19.144C25.5199 19.144 21.9679 19.528 18.5119 20.296C15.0559 21.064 11.9359 22.024 9.15194 23.176C7.90394 22.312 6.84794 21.016 5.98394 19.288C5.11994 17.464 4.68794 15.592 4.68794 13.672C4.68794 11.176 5.26394 9.208 6.41594 7.768C7.66394 6.232 9.53594 4.936 12.0319 3.88C14.8159 2.824 18.0799 2.056 21.8239 1.576C25.6639 1.09599 29.2639 0.855993 32.6239 0.855993Z" fill="#EA9801"/>
</svg>
